<?xml version="1.0" encoding="utf-8"?><svg xmlns="http://www.w3.org/2000/svg" xmlns:xlink="http://www.w3.org/1999/xlink"><symbol viewBox="0 0 32 31" id="ALARM" xmlns="http://www.w3.org/2000/svg"><path d="M30.7 9.5c-1.5-3.7-4.5-6.7-8.2-8.2 1-.8 2.3-1.3 3.6-1.3C29.4 0 32 2.6 32 5.9c0 1.3-.5 2.6-1.3 3.6zm-.2 6.5c0 3.9-1.5 7.3-4 9.9l2.1 2.1c.2.2.4.6.4 1 0 .8-.7 1.5-1.5 1.5-.4 0-.8-.2-1-.4l-2.2-2.2c-2.4 1.6-5.2 2.6-8.3 2.6-3.1 0-5.9-1-8.3-2.6l-2.1 2.2c-.3.2-.7.4-1.1.4-.8 0-1.5-.7-1.5-1.5 0-.4.2-.8.4-1.1l2.1-2c-2.5-2.6-4-6.1-4-9.9C1.5 8 8 1.5 16 1.5S30.5 8 30.5 16zM16 4.5C9.6 4.5 4.5 9.6 4.5 16S9.6 27.5 16 27.5 27.5 22.4 27.5 16 22.4 4.5 16 4.5zm6 13h-6c-.8 0-1.5-.7-1.5-1.5V8c0-.8.7-1.5 1.5-1.5s1.5.7 1.5 1.5v6.5H22c.8 0 1.5.7 1.5 1.5s-.7 1.5-1.5 1.5zM1.3 9.7C.5 8.7 0 7.4 0 6c0-3.3 2.7-6 6-6 1.4 0 2.7.5 3.7 1.3-3.8 1.6-6.8 4.6-8.4 8.4z"/></symbol><symbol viewBox="0 0 32 32" id="BOOK" xmlns="http://www.w3.org/2000/svg"><path d="M31.1 25.9l-14.5 6q-.3.1-.6.1t-.6-.1l-14.5-6c-.5-.2-.9-.8-.9-1.4v-23C0 .7.7 0 1.5 0q.3 0 .6.1L16 5.9 29.9.1q.3-.1.6-.1c.8 0 1.5.7 1.5 1.5v23c0 .6-.4 1.2-.9 1.4zM14.5 8.5L3 3.7v19.8l11.5 4.8zM29 3.7L17.5 8.5v19.7L29 23.4zm-9.1 6.9l5.5-2.5q.3-.1.6-.1c.8 0 1.5.7 1.5 1.5 0 .6-.4 1.1-.9 1.4l-5.5 2.5q-.3.1-.6.1c-.8 0-1.5-.7-1.5-1.5 0-.6.4-1.1.9-1.4zm0 5.5l5.5-2.5q.3-.1.6-.1c.8 0 1.5.7 1.5 1.5 0 .6-.4 1.1-.9 1.4l-5.5 2.5q-.3.1-.6.1c-.8 0-1.5-.7-1.5-1.5 0-.6.4-1.1.9-1.4zm0 5.5l5.5-2.5q.3-.1.6-.1c.8 0 1.5.7 1.5 1.5 0 .6-.4 1.1-.9 1.4l-5.5 2.5q-.3.1-.6.1c-.8 0-1.5-.7-1.5-1.5 0-.6.4-1.1.9-1.4zM6 8q.3 0 .6.1l5.5 2.5c.5.3.9.8.9 1.4 0 .8-.7 1.5-1.5 1.5q-.3 0-.6-.1l-5.5-2.5c-.5-.3-.9-.8-.9-1.4C4.5 8.7 5.2 8 6 8zm0 5.5q.3 0 .6.1l5.5 2.5c.5.3.9.8.9 1.4 0 .8-.7 1.5-1.5 1.5q-.3 0-.6-.1l-5.5-2.5c-.5-.3-.9-.8-.9-1.4 0-.8.7-1.5 1.5-1.5zM6 19q.3 0 .6.1l5.5 2.5c.5.3.9.8.9 1.4 0 .8-.7 1.5-1.5 1.5q-.3 0-.6-.1l-5.5-2.5c-.5-.3-.9-.8-.9-1.4 0-.8.7-1.5 1.5-1.5z"/></symbol><symbol viewBox="0 0 32 28" id="COMPUTER_" xmlns="http://www.w3.org/2000/svg"><path d="M30 23h-9.5v2.5l2 2v.5h-13v-.5l2-2V23H2c-.8 0-1.5-.7-1.5-1.5v-20C.5.7 1.2 0 2 0h28c.8 0 1.5.7 1.5 1.5v20c0 .8-.7 1.5-1.5 1.5zm-.5-21h-27v17h27zM13 9c.4 0 .8.2 1.1.4l.9 1 2.9-3c.3-.2.7-.4 1.1-.4.8 0 1.5.7 1.5 1.5 0 .4-.2.8-.4 1.1l-4 4c-.3.2-.7.4-1.1.4-.4 0-.8-.2-1.1-.4l-2-2c-.2-.3-.4-.7-.4-1.1 0-.8.7-1.5 1.5-1.5z"/></symbol><symbol viewBox="0 0 32 31" id="HOME" xmlns="http://www.w3.org/2000/svg"><path d="M32 16.5c0 .8-.7 1.5-1.5 1.5-.4 0-.8-.2-1-.4L16 4.2v-.1L2.6 17.6c-.3.2-.7.4-1.1.4-.8 0-1.5-.7-1.5-1.5 0-.4.2-.8.5-1.1L14.9 1c.3-.3.7-.5 1.1-.5h.2c.3 0 .7.2.9.5L23 6.9V5.5c0-.8.7-1.5 1.5-1.5s1.5.7 1.5 1.5v4.4l5.6 5.6c.2.2.4.6.4 1zM29 19v10.5c0 .8-.7 1.5-1.5 1.5h-3V19h-6v12h-14c-.8 0-1.5-.7-1.5-1.5V19L16 6zm-15.5 0h-6v6h6z"/></symbol><symbol viewBox="0 0 32 32" id="IMAGE" xmlns="http://www.w3.org/2000/svg"><path d="M30.5 32h-29C.7 32 0 31.3 0 30.5v-29C0 .7.7 0 1.5 0h29c.8 0 1.5.7 1.5 1.5v29c0 .8-.7 1.5-1.5 1.5zM29 3H3v26h26zM6.5 4.5H12c.8 0 1.5.7 1.5 1.5s-.7 1.5-1.5 1.5H7.5V12c0 .8-.7 1.5-1.5 1.5s-1.5-.7-1.5-1.5V4.5h2zM4.5 20c0-.8.7-1.5 1.5-1.5s1.5.7 1.5 1.5v4.5H12c.8 0 1.5.7 1.5 1.5s-.7 1.5-1.5 1.5H4.5v-2zM20 4.5h7.5V12c0 .8-.7 1.5-1.5 1.5s-1.5-.7-1.5-1.5V7.5H20c-.8 0-1.5-.7-1.5-1.5s.7-1.5 1.5-1.5zm0 20h4.5V20c0-.8.7-1.5 1.5-1.5s1.5.7 1.5 1.5v7.5H20c-.8 0-1.5-.7-1.5-1.5s.7-1.5 1.5-1.5z"/></symbol><symbol viewBox="0 0 32 32" id="LINE-GRAPH" xmlns="http://www.w3.org/2000/svg"><path d="M30.5 32h-29C.7 32 0 31.3 0 30.5v-29C0 .7.7 0 1.5 0h29c.8 0 1.5.7 1.5 1.5v29c0 .8-.7 1.5-1.5 1.5zM29 3H3v26h26zM5.2 16.2l4-2.5q.4-.2.8-.2.5 0 .8.3l6.7 4.4 7.6-5.4q.4-.3.9-.3c.8 0 1.5.7 1.5 1.5 0 .5-.2.9-.6 1.2l-8.5 6q-.4.3-.9.3t-.9-.3L10 16.8l-3.2 2q-.3.2-.8.2c-.8 0-1.5-.7-1.5-1.5 0-.5.3-1 .7-1.3z"/></symbol><symbol viewBox="0 0 18 18" id="MAGNIFYING-GLASS" xmlns="http://www.w3.org/2000/svg"><path d="M17.3 15c.3.3.5.7.5 1.1 0 1-.7 1.7-1.6 1.7-.5 0-.9-.2-1.2-.5l-4.9-4.8c-.9.6-2.1.9-3.3.9-3.6 0-6.6-3-6.6-6.6C.2 3.2 3.2.2 6.8.2c3.6 0 6.6 3 6.6 6.6 0 1.2-.3 2.4-.9 3.3l4.8 4.9zM6.8 1.8c-2.7 0-5 2.3-5 5s2.3 4.9 5 4.9 4.9-2.2 4.9-4.9-2.2-5-4.9-5z"/></symbol><symbol viewBox="0 0 18 15" id="SHOPPING-CART" xmlns="http://www.w3.org/2000/svg"><path d="M17.7 3.7l-2.4 5.5c-.2.2-.4.4-.7.4l-7.2.5.4 1.2h7.8c.9 0 1.6.7 1.6 1.6 0 1-.7 1.7-1.6 1.7-.9 0-1.7-.7-1.7-1.7H6.2c0 1-.7 1.7-1.6 1.7-.9 0-1.7-.7-1.7-1.7 0-.9.8-1.6 1.7-1.6h1.5L2.9 2.2H1c-.4 0-.8-.3-.8-.8S.6.6 1 .6h2.5c.4 0 .7.2.8.5l.5 1.4H17c.4 0 .8.4.8.8q0 .2-.1.4zm-12.4.4l1.6 4.4L14 8l1.7-3.9z"/></symbol><symbol viewBox="0 0 12 26" id="facebook" xmlns="http://www.w3.org/2000/svg"><path d="M12.1.2v4.1s-3-.3-3.8.9c-.4.6-.2 2.5-.2 3.8h4c-.3 1.6-.6 2.6-.8 4H8.1v12.8H2.5V13H.1V9h2.4c.1-2.9.1-5.8 1.6-7.3C5.7 0 7.3.2 12.1.2z"/></symbol><symbol viewBox="0 0 26 26" id="instagram" xmlns="http://www.w3.org/2000/svg"><path d="M22.7 25.8H3.5c-1.8 0-3.2-1.4-3.2-3.2V3.4C.3 1.6 1.7.2 3.5.2h19.2c1.8 0 3.2 1.4 3.2 3.2v19.2c0 1.8-1.4 3.2-3.2 3.2zM13.1 8c-2 0-3.7 1.2-4.5 2.9v.1q-.1.1-.2.3v.2q-.1.1-.1.3v.2q-.1.1-.1.3v.2q-.1.2-.1.5c0 2.7 2.3 5 5 5s5-2.3 5-5q0-.3-.1-.5v-.2q0-.2-.1-.3v-.2q0-.2-.1-.3v-.2q-.1-.2-.2-.3v-.1C16.8 9.2 15.1 8 13.1 8zM23 4.4c0-.7-.6-1.3-1.3-1.3h-2.5c-.7 0-1.3.6-1.3 1.3v2.5c0 .7.6 1.3 1.3 1.3h2.5c.7 0 1.3-.6 1.3-1.3zm0 6.6h-2.3q.2 1 .2 2.1c0 4.3-3.5 7.8-7.8 7.8s-7.8-3.5-7.8-7.8q0-1.1.2-2.1H3.2v10.7c0 .7.6 1.3 1.3 1.3h17.2c.7 0 1.3-.6 1.3-1.3z"/></symbol><symbol viewBox="0 0 20 26" id="pinterest" xmlns="http://www.w3.org/2000/svg"><path d="M8.1 16.9q-.4 1.2-.7 2.5c-.2.9-.4 1.7-.7 2.5-.5 1.3-1.2 2.5-2 3.5-.6.7-.5.4-.7.4-.1-.1-.1-.2-.1-.4-.2-1-.1-2.2 0-3.3 0-1.3.3-2.4.6-3.5.4-2 .9-4.1 1.4-6.1 0-.2.1-.4.1-.5-.2-.6-.4-1.1-.5-1.7q-.1-1 .2-1.9c.3-1.1.9-2 1.9-2.4.6-.2 1.3-.1 1.7.2q.7.3.9 1.2c.1.6 0 1.4-.1 1.9-.3 1.2-.6 2.1-.9 3.3-.2.6-.4 1.2-.2 1.8.1.6.4 1 .8 1.3.5.3 1 .5 1.6.4 1.3 0 2.1-.8 2.7-1.5.9-1.2 1.5-2.8 1.7-4.7 0-.6.1-1.3 0-2 0-1.3-.4-2.3-1.1-3.1-.6-.8-1.4-1.4-2.5-1.8-1-.3-2.5-.4-3.7-.2-2.4.4-4 1.7-5 3.5-.5 1-.8 2.1-.8 3.5 0 1 .3 1.8.7 2.5.1.2.3.3.4.6.2.3 0 .8-.1 1.1-.1.4-.1 1-.6 1-.2 0-.5-.1-.6-.2-1.3-.7-2.1-2-2.5-3.7-.2-1.1-.2-2.3 0-3.3.2-.9.6-1.8 1-2.6.8-1.5 2-2.7 3.4-3.5C5.6 1 6.8.6 8.3.3Q9.1.2 10 .2c1.6-.1 3.1.3 4.3.8 1.2.6 2.1 1.3 3 2.2.8.9 1.4 1.9 1.8 3.3.2.7.4 1.4.4 2.3 0 .8-.2 1.6-.3 2.3-.5 2.9-1.8 5.2-3.9 6.5-.4.3-1 .6-1.7.8-.7.2-1.4.3-2.2.3-.8-.1-1.5-.3-2-.6-.6-.3-1-.7-1.3-1.2z"/></symbol><symbol viewBox="0 0 26 22" id="twitter" xmlns="http://www.w3.org/2000/svg"><path d="M17.5.6c2 0 3.1.7 4.2 1.6.8 0 2-.5 2.7-.9q.3-.1.6-.3c-.4 1-.9 1.8-1.7 2.4-.2.2-.3.4-.6.5 1.2 0 2.1-.6 3-.8-.5.7-1.1 1.5-1.8 2q-.4.3-.8.7c0 1.2 0 2.3-.2 3.3-1.4 5.9-4.8 9.9-10.3 11.7-2 .6-5.2.8-7.5.3-1.1-.3-2.1-.6-3.1-1l-1.4-.8q-.3-.2-.5-.3c.5 0 1.1.2 1.7.1.5-.1 1-.1 1.5-.2 1.2-.3 2.2-.6 3.1-1.1.5-.3 1.1-.6 1.5-1-.6 0-1.2-.1-1.6-.2-1.7-.6-2.7-1.7-3.3-3.4.5.1 2 .2 2.3-.1-.6 0-1.3-.4-1.7-.7-1.4-.9-2.5-2.3-2.5-4.5q.3.1.6.3c.3.1.6.2 1.1.3.1 0 .5.1.7 0h-.1c-.2-.3-.7-.5-.9-.8C1.6 6.6.8 4.9 1.3 2.9c.1-.5.3-.9.6-1.3.1.2.3.3.5.5.4.6 1 1.1 1.5 1.5C5.8 5.1 7.6 6 10.4 6.7c.7.2 1.5.3 2.3.3-.2-.7-.2-1.8 0-2.4.5-1.7 1.5-2.9 3-3.6q.5-.2 1.2-.3.3-.1.6-.1z"/></symbol></svg>